<svg id="visual" viewBox="0 0 960 540" width="960" height="540" xmlns="http://www.w3.org/2000/svg" xmlns:xlink="http://www.w3.org/1999/xlink" version="1.1"><path d="M0 480L96 344L192 352L288 235L384 360L480 261L576 274L672 382L768 270L864 417L960 373L960 0L864 0L768 0L672 0L576 0L480 0L384 0L288 0L192 0L96 0L0 0Z" fill="#8b1500"></path><path d="M0 219L96 304L192 304L288 271L384 242L480 241L576 190L672 234L768 274L864 252L960 364L960 0L864 0L768 0L672 0L576 0L480 0L384 0L288 0L192 0L96 0L0 0Z" fill="#9f1705"></path><path d="M0 232L96 264L192 144L288 209L384 183L480 202L576 268L672 151L768 244L864 174L960 155L960 0L864 0L768 0L672 0L576 0L480 0L384 0L288 0L192 0L96 0L0 0Z" fill="#b4180a"></path><path d="M0 205L96 133L192 158L288 93L384 183L480 155L576 128L672 162L768 222L864 215L960 210L960 0L864 0L768 0L672 0L576 0L480 0L384 0L288 0L192 0L96 0L0 0Z" fill="#c91911"></path><path d="M0 30L96 67L192 61L288 107L384 102L480 109L576 59L672 28L768 104L864 114L960 45L960 0L864 0L768 0L672 0L576 0L480 0L384 0L288 0L192 0L96 0L0 0Z" fill="#df1818"></path></svg>